<?xml version="1.0" encoding="utf-8"?>
<!-- Generator: Adobe Illustrator 27.9.0, SVG Export Plug-In . SVG Version: 6.00 Build 0)  -->
<svg version="1.1" id="Layer_1" xmlns="http://www.w3.org/2000/svg" xmlns:xlink="http://www.w3.org/1999/xlink" x="0px" y="0px"
	 viewBox="0 0 1080 1080" style="enable-background:new 0 0 1080 1080;" xml:space="preserve">
<g>
	<path d="M15,920h600v20H15V920z M315,460c99,0,180,81,180,180s-81,180-180,180s-180-81-180-180S216,460,315,460z M465,640
		c0-83-67-150-150-150s-150,67-150,150s67,150,150,150S465,723,465,640z M240,315c25,0,45,20,45,45s-20,45-45,45s-45-20-45-45
		S215,315,240,315z M315,165c27.5,0,50,22.5,50,50s-22.5,50-50,50s-50-22.5-50-50S287.5,165,315,165z M390,315c25,0,45,20,45,45
		s-20,45-45,45s-45-20-45-45S365,315,390,315z"/>
	<path d="M627,920c-26-31.5-42-71.5-42-115c0-94,73-171.5,165-179.5v-408c0-45-15-52.5-40-57.5v-20h110v20c-25,5-40,12.5-40,57.5
		v408c92,8,165,85.5,165,179.5c0,43.5-15.5,83.5-41.5,115H1065v20H843c42-28.5,72-78.5,72-135c0-83-67-150-150-150s-150,67-150,150
		c0,56.5,29.5,106.5,71.5,135H465v-20H627z"/>
</g>
</svg>
